<?xml version="1.0" encoding="UTF-8"?>
<!DOCTYPE svg PUBLIC "-//W3C//DTD SVG 1.1//EN" "http://www.w3.org/Graphics/SVG/1.1/DTD/svg11.dtd">
<!-- Creator: CorelDRAW 2018 (64 Bit) -->
<svg xmlns="http://www.w3.org/2000/svg" xml:space="preserve" width="258.3mm" height="236.761mm" version="1.1" style="shape-rendering:geometricPrecision; text-rendering:geometricPrecision; image-rendering:optimizeQuality; fill-rule:evenodd; clip-rule:evenodd"
viewBox="0 0 37.9359 34.7725"
 xmlns:xlink="http://www.w3.org/1999/xlink">
 <defs>
  <style type="text/css">
   <![CDATA[
    .str2 {stroke:#1C1B17;stroke-width:0.0734;stroke-miterlimit:22.9256}
    .str1 {stroke:#2B2A29;stroke-width:0.0294;stroke-miterlimit:22.9256}
    .str0 {stroke:#1C1B17;stroke-width:0.0294;stroke-miterlimit:22.9256}
    .fil9 {fill:none}
    .fil3 {fill:#2B2A29}
    .fil5 {fill:#1C1B17}
    .fil7 {fill:#080808}
    .fil8 {fill:#090909}
    .fil4 {fill:#191919}
    .fil2 {fill:#1E1E1E}
    .fil6 {fill:#212121}
    .fil0 {fill:#898989}
    .fil1 {fill:#939494}
   ]]>
  </style>
 </defs>
 <g id="Capa_x0020_1">
  <metadata id="CorelCorpID_0Corel-Layer"/>
  <path class="fil0" d="M10.1523 7.5034c0.1001,-0.0201 0.0787,0.0035 0.1871,-0.0418l0.1014 -0.0548c0.0126,-0.0067 0.0312,-0.0227 0.0471,-0.0335 -0.1299,0.0243 -0.0905,0.0051 -0.1929,0.0411 -0.0976,0.0343 -0.0967,0.0547 -0.1428,0.089z"/>
  <path class="fil1" d="M17.4515 34.6785c0.1692,0.1054 0.1702,0.1047 0.4909,0.0811 0.2949,-0.0217 1.2706,-0.0632 1.3833,-0.1368 0.0283,-0.3925 -0.0165,-0.1907 -0.097,-0.2636l0.0387 0.236 -1.8158 0.0833z"/>
  <path class="fil2 str0" d="M19.7991 28.568c0.1748,-0.1939 0.092,-0.0637 -0.0318,-0.1207 -0.8088,0.1673 -0.9514,0.223 -1.759,-0.0686 -0.6977,-0.2519 -1.186,-0.0039 -1.3358,0.546 0.5894,-0.2494 0.2018,-0.7349 1.5077,-0.3215 0.8657,0.274 0.7818,0.2532 1.6189,-0.0351z"/>
  <path class="fil3 str1" d="M12.0962 5.7991c0.1409,-0.0332 0.8103,-0.5752 2.4699,-0.9974 -0.1108,-0.0982 -0.0045,-0.0808 -0.2071,-0.0956 -0.1694,-0.0124 -2.0358,0.4624 -2.2628,1.0931z"/>
  <path class="fil2 str1" d="M9.8896 4.1044l0.0652 -0.0639c-0.1916,-0.2348 -0.3749,-0.3812 -0.6028,-0.6937 -0.0929,-0.1274 -0.1647,-0.2582 -0.2362,-0.4262 -0.1395,-0.3278 -0.0031,-0.2267 -0.2039,-0.4125 -0.2535,0.4454 0.6746,1.436 0.9777,1.5963z"/>
  <path class="fil3 str1" d="M14.6448 7.4419c0.5043,-0.1984 -0.6305,-0.9701 -0.9675,-1.0343 -0.4835,-0.0921 -1.2751,0.0715 -1.3248,0.6369 0.0856,-0.0352 1.3355,-1.2104 2.2922,0.3974z"/>
  <path class="fil4" d="M17.5194 26.3313l0.1688 -0.0629c-1.4375,-0.2765 -1.7391,-0.5957 -2.5758,-1.2239 -1.4805,-1.1116 -2.7744,1.9495 -1.1638,3.0595 -0.0356,-0.4586 -0.6052,-0.7581 -0.562,-1.7043 0.0255,-0.5589 0.5045,-1.2457 0.8642,-1.3659 0.7474,-0.2498 1.6417,1.3845 3.2686,1.2975z"/>
  <path class="fil5 str0" d="M14.4693 15.4487l0.0709 -0.0693c-0.1707,-0.9269 -0.6271,-0.9626 -0.7486,-3.1688 -0.046,-0.8354 -0.3031,-1.8904 -0.759,-2.5929 -0.1483,-0.2285 -0.0576,-0.1511 -0.2909,-0.2214 0.1043,0.33 0.3565,0.5293 0.6284,1.4062 0.4933,1.5905 -0.0847,2.4263 1.0991,4.6462z"/>
  <path class="fil5 str0" d="M12.9669 14.8598c0.4594,0.3534 0.6274,0.257 0.922,0.861 0.3945,0.8087 0.4899,1.952 0.5935,2.8509l0.0874 1.2216c0.0495,0.436 0.0272,0.2075 0.1441,0.3187 0.0208,-0.9856 -0.1062,-2.3762 -0.2972,-3.3143 -0.131,-0.6437 -0.3567,-1.4181 -0.8757,-1.789 -0.4198,-0.3 -0.4636,-0.2215 -0.5742,-0.149z"/>
  <path class="fil4 str1" d="M6.2514 12.0081c0.0144,0.0079 0.0335,0.0184 0.0442,0.0218l0.3555 0.0366c1.222,-0.0691 2.5138,-0.9641 2.813,-2.1553 0.1106,-0.4403 0.319,-1.1489 0.1116,-1.5579 -0.0622,0.0812 -0.0438,-0.0668 -0.0825,0.2038 -0.0004,0.0026 -0.0002,0.185 -0.0002,0.2011 -0.0051,2.9998 -2.8867,3.0298 -3.2416,3.25z"/>
  <path class="fil5 str0" d="M14.5309 21.0111c-0.0166,0.9729 -1.1957,2.6452 -1.3239,3.1542 0.2102,-0.1114 0.3257,-0.3441 0.5151,-0.6553 0.3433,-0.5642 0.9033,-1.7279 0.9662,-2.4005l0.0323 -0.3489c-0.0835,0.0747 -0.0428,0.0321 -0.1193,0.1308 -0.0171,0.0221 -0.068,0.1159 -0.0704,0.1197z"/>
  <path class="fil4 str1" d="M10.2276 11.1221c0.2531,-0.5545 0.3253,-2.6333 -0.2527,-2.8922 0.0072,0.2211 0.1342,0.4252 0.1846,0.6773 0.1816,0.9089 -0.1234,1.9065 0.0681,2.2149z"/>
  <path class="fil6" d="M14.6628 24.4254c0.3563,-0.0712 0.5922,-0.2232 0.9785,-0.3069 1.0557,-0.2286 3.2518,-0.1171 3.3094,-0.2791 0.0066,-0.0187 0.0268,-0.017 0.0394,-0.0266 -0.2642,-0.1334 -1.9805,-0.0199 -2.3768,0.0024 -0.466,0.0262 -1.6761,0.1388 -1.9505,0.6102z"/>
  <path class="fil6 str1" d="M10.6496 10.0141c-0.0306,0.2809 -0.0473,0.0962 0.1207,0.1401 -0.0117,-0.2225 0.3231,-0.8513 0.4549,-1.0774 0.1899,-0.3257 0.4942,-0.6602 0.58,-0.9978 -0.0216,-0.1017 0.0104,-0.0868 -0.0839,-0.0635 -0.1056,0.2473 -0.4319,0.6279 -0.6187,0.9454 -0.1811,0.3077 -0.3645,0.6619 -0.4529,1.0532z"/>
  <path class="fil5 str0" d="M2.7283 10.071c0.0832,-0.0405 0.1402,0.0748 0.0153,-0.1038 -0.138,-0.2165 -0.4725,-0.5353 -0.6883,-0.791 -0.4723,-0.5597 -0.8645,-1.2582 -1.0454,-2.0086 -0.1981,-0.8212 -0.0666,-0.7949 -0.0952,-1.1242l-0.0352 -0.0785c-0.0532,0.0535 -0.1046,0.0364 -0.1279,0.2727 -0.1293,1.3078 0.9841,3.0755 1.9767,3.8334z"/>
  <path class="fil5 str0" d="M10.488 7.3732c-0.0159,0.0108 -0.0346,0.0268 -0.0471,0.0335l-0.1014 0.0548c-0.1085,0.0454 -0.0871,0.0217 -0.1871,0.0418 -0.3817,0.0182 -0.4483,-0.045 -0.6419,-0.2711 -1.6974,-1.9827 -3.8494,-2.932 -6.3572,-2.9918 -0.8195,0.0165 -2.7685,-0.0788 -3.1041,2.1024 -0.2085,1.3554 0.5668,2.4659 1.1374,3.2362 2.1944,2.9628 4.0414,4.4233 7.5952,4.2385 0.3929,-0.0204 0.8184,-0.21 1.1237,-0.1716 1.1252,0.1415 0.0535,1.4702 0.3584,2.7757 0.2889,1.237 0.3621,3.0238 0.4554,4.3842 0.0527,0.7689 -0.0817,1.6031 0.1445,2.3159 0.2775,0.8746 1.3083,4.1838 1.0299,4.623 0.0438,1.6348 -0.3297,3.0893 2.0777,4.2076 1.2263,0.5697 1.9145,2.5197 3.4802,2.7261l1.8158 -0.0833 -0.0387 -0.236c-1.4845,0.0129 -1.8778,0.2514 -2.8927,-0.5874 -0.7487,-0.6187 -0.7726,-0.8085 -1.3164,-1.4047 -0.1194,-0.1309 -0.2977,-0.2626 -0.3846,-0.4386 1.4059,-0.0774 3.3928,0.4399 4.4937,-0.2257l-0.0162 -0.5082c-0.1982,0.1161 -0.0618,0.2641 -0.4081,0.4088 -0.4285,0.1791 -1.9063,0.1251 -2.3482,0.0735 -1.0621,-0.1239 -1.0647,-1.4153 -1.5343,-1.7042l-0.0476 0.0296c0.1155,0.227 0.3028,0.5557 0.451,0.8363 0.1451,0.2746 0.4315,0.609 0.5028,0.7825 -0.4526,0.0587 -1.6448,0.0597 -2.0126,-0.1323 -0.5134,-0.268 -0.9045,-0.5893 -1.1624,-1.0329 -0.7048,-1.2125 -0.3102,-2.3667 -0.1923,-3.7059 0.0304,-0.0533 0.101,-0.1941 0.1404,-0.4441 0.1899,-1.0732 1.0227,-1.7133 1.7437,-2.1365 0.498,-0.2923 2.313,-0.7701 2.1048,-1.6852 -0.4262,0.0487 -0.1033,0.115 -0.516,0.5502 -0.5228,0.5514 -3.1361,0.838 -3.6597,3.2778 -0.012,0.0168 -0.0413,0.2577 -0.157,-0.0491 -0.1151,-0.534 -0.5102,-1.1391 -0.6395,-1.795 -0.0654,-0.3321 -0.0575,-0.7256 -0.1261,-1.0625 -0.0812,-0.3986 -0.1991,-0.5123 -0.2051,-0.9832 -0.0106,-0.8413 -0.0348,-1.568 -0.0956,-2.3878 -0.1046,-1.4118 -0.5833,-4.2144 -0.2569,-5.4432 0.2183,-0.8218 -0.4042,-1.4219 -1.2663,-1.1941 -1.2668,0.3349 -3.7551,-0.0746 -4.741,-0.6197 -1.423,-0.7868 -1.8367,-1.5096 -2.7651,-2.7369 -0.8583,-1.1347 -1.6936,-1.7998 -1.569,-3.8317 0.5448,-3.2508 6.4758,-1.2578 8.3573,0.6287l0.9988 0.9902c0.9164,0.0367 2.1805,-0.8549 2.1233,-1.6559l-2.2409 -0.9443c-4.538,-1.9237 -1.4887,-5.0218 -0.2917,-4.8736 0.2806,1.0078 -1.0732,1.409 -0.0779,2.1928 0.5299,0.4173 1.377,0.7522 2.2801,0.7404 0.9575,-0.0125 1.637,-0.4365 2.338,-0.7446 2.1554,-0.9471 2.714,-0.482 3.8458,-0.6774 0.8315,-0.1435 0.6803,0.021 1.3198,0.0666 0.5502,0.0392 0.6528,-0.2923 1.3441,-0.0917 0.5748,0.1668 0.7239,0.0293 1.3075,0.0145 2.2995,-0.0584 3.8109,1.6017 4.2612,1.3426 0.2385,-0.1372 0.0834,0.049 0.1233,-0.2087 -1.1952,-0.4009 -1.4584,-0.7585 -2.5431,-1.1369 -0.153,-0.0236 -0.075,0.0028 -0.1977,-0.0366 -0.0958,-0.0307 -0.1121,-0.0608 -0.1511,-0.0873 -0.7754,-0.1217 -1.1553,-0.2258 -2.0231,-0.1302 -0.5655,0.0623 -0.5173,-0.0411 -0.9466,-0.1131 -0.4316,-0.0724 -0.5488,0.0595 -0.8891,0.1342 -0.3366,0.0739 -0.5429,-0.0807 -0.8347,-0.1222 -0.4555,-0.0648 -0.5457,0.0467 -0.9162,0.0972 -0.6263,0.0853 -1.3311,-0.006 -2.0232,0.0955 -1.3505,0.198 -2.0538,0.8325 -3.1689,1.1616 -1.1591,0.3421 -2.7299,-0.0583 -3.1712,-0.7907 -0.0022,-0.5603 0.5561,-0.9049 0.4798,-1.5899 -0.1458,-1.3078 -2.9263,0.4178 -2.7412,2.3895 0.2241,2.3874 4.0442,3.0373 4.5801,3.5111 -0.181,0.4393 -0.561,0.7935 -1.0068,1.0023z"/>
  <path class="fil7 str0" d="M14.6195 28.4254c0.9764,1.8586 2.3726,0.5926 1.4993,-0.5375 -0.3114,-0.4029 -0.8051,-0.6942 -1.129,-1.1304 -0.4864,-0.6551 0.0668,-1.6312 -0.6345,-1.5375 -0.3877,1.0675 0.0298,2.1843 0.2642,3.2053z"/>
  <path class="fil8" d="M11.1065 12.4923l-0.0294 0.2171c-0.267,0.042 -0.3639,-0.3004 0.0294,-0.2171zm0.811 -0.1527c-0.1225,0.0991 0.1362,0.0802 -0.2091,0.0825 -0.1129,0.0007 -0.5011,-0.0224 -0.59,-0.0825 0.023,-0.257 0.5941,-0.3449 0.7991,0zm-2.2133 -0.0961c-0.0124,0.1955 -0.0295,0.1002 0.0706,0.1356 0.4139,-0.1947 0.8621,-0.5785 1.3347,-0.4868 -0.3521,0.5423 -0.3878,0.0243 -0.4696,1.0066 0.0538,0.4261 0.4096,0.7259 0.6757,0.8836 0.3254,0.1928 0.8397,0.4573 1.1995,0.1655 0.1999,-0.4198 0.0338,-0.925 -0.1143,-1.3328 0.0031,-0.6059 -0.5415,-0.9177 -1.1649,-0.9452 -0.7365,-0.0324 -1.0889,0.2963 -1.5316,0.5734z"/>
  <path class="fil5 str0" d="M17.4683 26.2864c0.2861,0.2697 2.7552,0.2438 3.1404,0.0466 -0.176,-0.1079 -1.1736,-0.0127 -1.4074,-0.017 -0.5237,-0.0096 -1.0083,-0.0003 -1.5265,-0.0341l-0.2065 0.0046z"/>
  <path class="fil9 str2" d="M25.3438 33.1561c0.4597,-0.345 0.3416,-0.384 0.3317,-1.01 -0.0354,-2.23 0.5011,-8.4887 5.0666,-14.8699 0.8348,-1.1861 1.6129,-2.2643 2.5572,-3.1767 0.5809,-0.5612 2.4854,-2.2405 3.3108,-2.094 -0.0408,-0.0369 0,-0.0179 -0.0741,-0.0434 -0.0936,-0.0321 0.0015,-0.0047 -0.0595,-0.014 -0.2212,-0.0338 -0.7268,0.0831 -0.9298,0.1491 -0.3273,0.1064 -0.6606,0.2606 -0.9186,0.4124 -2.0706,1.2184 -4.1943,3.9992 -5.3596,6.1097 -3.7017,6.7039 -3.2489,7.016 -3.8539,13.2156 -0.0152,0.2205 -0.0215,0.432 -0.038,0.6443 -0.0111,0.144 -0.0622,0.5941 -0.0328,0.6769z"/>
  <path class="fil9 str2" d="M24.2742 27.6652c-0.3898,-0.4659 -1.0473,-2.7936 -1.2624,-3.4066 -0.1979,-0.5638 -0.3707,-1.1408 -0.7547,-1.4849 -0.228,-0.2043 -0.9992,-0.4702 -1.1253,-0.9732 0.1485,0.1398 0.4197,0.2322 0.713,0.2767 0.395,0.06 0.4696,0.0857 0.7233,0.3374 -0.1534,-0.4594 -0.4197,-0.1683 0.1576,-0.8546 0.1524,-0.1812 0.1871,-0.3049 0.2546,-0.5882 0.3842,0.6293 -0.0164,1.2198 -0.0666,1.5377 -0.0759,0.4807 0.2391,1.2111 0.3968,1.6728 0.3187,0.9328 0.8809,2.5086 0.9638,3.4829z"/>
  <path class="fil9 str2" d="M24.8962 29.1804c-0.0158,-0.2137 -0.2429,-0.7433 -0.3337,-0.9576 -0.1382,-0.3262 -0.1895,-0.7515 -0.2495,-1.104 -0.2987,-1.7571 -0.2434,-2.786 -0.4507,-4.3943 -0.0512,-0.3969 -0.1152,-0.7653 -0.2091,-1.1547 -0.0626,-0.2595 -0.2943,-0.8614 -0.2173,-1.0596 0.2037,0.3653 0.5243,1.568 0.6264,2.0338 0.1701,0.7754 0.3017,1.4933 0.3918,2.2805 0.0833,0.7274 0.1392,1.4369 0.1949,2.1648 0.0568,0.743 0.1949,1.4626 0.2471,2.1912z"/>
  <g id="_3278754384">
   <path class="fil9 str2" d="M28.4472 19.9141c0.3859,-0.4692 1.0237,-2.8023 1.2337,-3.4171 0.1932,-0.5655 0.3611,-1.1439 0.7422,-1.4912 0.2262,-0.2062 0.9952,-0.4786 1.1171,-0.9826 -0.1473,0.1411 -0.4177,0.2357 -0.7106,0.2827 -0.3944,0.0633 -0.4689,0.0896 -0.7204,0.3435 0.1495,-0.4606 0.4182,-0.1718 -0.1648,-0.8533 -0.1539,-0.1799 -0.1896,-0.3033 -0.2595,-0.586 -0.3789,0.6325 0.0267,1.2196 0.0795,1.5371 0.0799,0.48 -0.2289,1.2131 -0.3828,1.676 -0.3108,0.9354 -0.8598,2.516 -0.9345,3.4909z"/>
   <path class="fil9 str2" d="M32.4307 9.7663c0.1522,-0.2519 0.4107,-0.4432 0.5233,-0.7329 0.2168,-0.5582 0.0488,-0.8275 0.0692,-1.0384 0.0311,-0.323 0.7787,-1.3277 0.9691,-1.6071 0.735,-1.079 1.4229,-1.8791 1.9412,-3.2546 -0.1266,0.0155 -0.0264,-0.0661 -0.1461,0.1245l-3.0009 4.6588c-0.3047,0.4587 -0.6848,0.721 -0.478,1.3656l0.1222 0.4841z"/>
   <path class="fil9 str2" d="M31.8081 10.8758c0.0506,-0.16 0.3201,-0.4963 0.3969,-0.7982 0.1138,-0.4475 -0.0271,-0.5835 -0.0926,-0.9287 -0.0965,-0.509 0.4999,-1.2476 0.7357,-1.6415 0.6722,-1.1229 1.2306,-1.8579 1.6705,-3.2789 -0.1205,0.0059 -0.0671,-0.0111 -0.2283,0.3308 -0.4183,0.887 -1.5246,2.7698 -2.051,3.6566 -0.2684,0.4521 -0.8142,1.3359 -0.6837,1.8019 0.0401,0.1431 0.1146,0.2415 0.174,0.394 0.0614,0.1575 0.0674,0.2672 0.0786,0.464z"/>
   <path class="fil9 str2" d="M31.3314 11.8631c0.0991,-0.1165 0.3051,-0.5546 0.3418,-0.7426 0.0669,-0.3424 -0.0535,-0.6004 -0.1788,-0.7835 -0.3295,-0.4817 0.0601,-1.0114 0.3145,-1.5129 0.4409,-0.8691 1.0981,-2.2052 1.2736,-3.2486 -0.0487,0.036 -0.023,0.0023 -0.0635,0.0643l-0.6238 1.5707c-0.4031,0.919 -1.1886,2.3563 -1.4615,3.1194 -0.1113,0.3113 -0.0693,0.6236 0.0526,0.8429 0.1737,0.3124 0.2227,0.2068 0.345,0.6901z"/>
   <path class="fil9 str2" d="M37.8781 2.8216l-0.074 -0.013c-0.564,0.5061 -0.6509,0.5161 -1.2779,1.1587 -1.1109,1.1385 -1.433,1.7508 -2.2699,2.8566 -0.2755,0.364 -0.3282,0.2806 -0.6821,0.5424 -0.3347,0.2477 -0.3659,0.4683 -0.4006,0.9469 0.1286,-0.0211 0.2375,-0.1012 0.4171,-0.1329 0.2262,-0.0399 0.2738,-0.0106 0.4011,-0.2171 0.2273,-0.3688 0.1097,-0.6381 0.3651,-1.0032 1.0061,-1.4382 1.9576,-2.5857 3.1946,-3.7931 0.1108,-0.1082 0.2407,-0.195 0.3265,-0.3452z"/>
   <path class="fil9 str2" d="M32.2131 10.4599c0.5964,-0.2648 0.1853,-0.1264 0.8092,-0.2422 0.309,-0.0574 0.4766,-0.2557 0.6217,-0.4934 0.7749,-1.2689 1.8482,-2.7182 3.0808,-3.5599 0.1066,-0.0728 0.1107,-0.0402 0.1498,-0.1433 -0.9754,0.2123 -2.3026,1.9802 -2.8385,2.8436 -0.1715,0.2762 -0.3121,0.4372 -0.6144,0.4931 -0.7836,0.1451 -0.8052,0.3784 -1.2086,1.1022z"/>
   <path class="fil9 str2" d="M30.8422 12.9618c0.1666,-0.4205 0.507,-0.8833 0.2577,-1.3507 -0.2556,-0.4793 -0.5539,-0.4407 -0.2865,-1.2103 0.1314,-0.378 1.0292,-2.5151 0.9641,-2.7202 -0.0618,0.0437 -1.5075,3.2295 -1.4439,4.1574 0.0282,0.4116 0.2829,0.5328 0.4145,0.8094 0.0637,0.134 0.0428,0.197 0.0942,0.3144z"/>
   <path class="fil9 str2" d="M31.7114 11.4157c0.6657,-0.1995 0.036,-0.0668 0.7403,-0.1443 0.6649,-0.0731 0.967,-0.813 1.4228,-1.5119 0.445,-0.6824 1.0687,-1.4672 1.6854,-2.0128 0.0007,-0.0006 0.0674,-0.0623 0.0691,-0.064 0.0705,-0.0736 -0.0308,0.0631 0.0723,-0.0848 -0.5459,0.0965 -1.6639,1.595 -1.9244,2.0255 -0.101,0.1669 -0.2852,0.4755 -0.3962,0.6126 -0.402,0.4966 -1.1292,-0.3334 -1.6691,1.1797z"/>
   <path class="fil9 str2" d="M33.2049 8.5159c-0.0725,0.3516 -0.0498,0.5138 -0.2439,0.7988 0.7803,-0.0296 1.0096,-0.5057 1.2869,-0.9877 0.2729,-0.4744 0.6997,-1.0169 1.0356,-1.4205 0.8521,-1.0237 1.2953,-1.3928 2.3032,-2.0594l0.1958 -0.1636c-0.7654,0.0918 -1.9062,1.2975 -2.3685,1.8251 -0.3476,0.3967 -0.6138,0.7877 -0.9424,1.2049 -0.0808,0.1026 -0.1488,0.2085 -0.2267,0.3182 -0.392,0.5515 -0.3739,0.0698 -1.0399,0.4842z"/>
   <path class="fil9 str2" d="M31.2049 12.4822c0.2333,-0.087 0.1717,-0.1529 0.5899,-0.1839 0.2334,-0.0173 0.4215,-0.0761 0.5779,-0.1603 0.2024,-0.1089 0.6149,-0.5991 0.8078,-0.8596 0.327,-0.4417 0.7259,-1.0943 1.0634,-1.4809 0.1105,-0.1266 0.3191,-0.3383 0.3992,-0.4615 -0.2412,0.0055 -0.6826,0.6277 -0.8115,0.8084 -1.4347,2.0109 -1.0608,0.9795 -1.8846,1.3349 -0.3779,0.163 -0.5691,0.4911 -0.742,1.0029z"/>
   <path class="fil9 str2" d="M30.3739 14.0142l0.1327 -0.27c0.4767,-1.2152 -0.179,-0.9811 -0.3489,-1.7456l-0.0541 -0.1451c-0.187,0.6942 -0.5154,1.1228 0.0052,1.6924 0.1257,0.1376 0.2072,0.2913 0.2652,0.4683z"/>
   <path class="fil9 str2" d="M30.6982 13.6143c0.8845,-0.5996 1.0613,0.1482 1.818,-1.3412 -0.2327,0.0633 -0.2778,0.1525 -0.5855,0.1646 -0.2455,0.0096 -0.4259,0.0518 -0.5889,0.1443 -0.3216,0.1825 -0.4653,0.5939 -0.6437,1.0323z"/>
   <path class="fil9 str2" d="M30.4242 14.2567c0.4671,-0.1616 0.6244,-0.0857 0.8617,-0.1804 0.2284,-0.0912 0.4767,-0.3501 0.5217,-0.6518 -0.8557,0.1903 -0.9709,-0.0302 -1.3834,0.8322z"/>
  </g>
  <g id="_3278701872">
   <path class="fil9 str2" d="M26.6301 15.4656l0.0688 -0.4002c-0.3836,-0.3154 -0.0888,-0.1169 -0.5564,-0.3765 -0.2641,-0.1466 -0.2845,-0.3064 -0.4295,-0.4248 0.0953,1.1707 0.5473,0.9619 0.7673,1.6367 0.152,0.4663 0.3477,3.4264 0.4192,4.1792 0.065,0.6833 0.1836,1.4024 0.245,2.083 0.0966,-0.2019 0.1291,-0.7902 0.1626,-1.0753 0.0974,-0.8307 -0.5308,-3.7607 -0.3723,-4.9226 0.1235,-0.9056 0.6663,-0.7774 0.7844,-1.7889 -0.1216,0.2052 -0.3786,0.4251 -0.5415,0.5058 -0.344,0.1704 -0.3359,0.1816 -0.5477,0.5835z"/>
   <path class="fil9 str2" d="M27.2996 22.2706c0.0141,-0.2138 0.2366,-0.7454 0.3256,-0.9604 0.1355,-0.3273 0.1832,-0.7531 0.2402,-1.1061 0.2839,-1.7595 0.22,-2.7879 0.4137,-4.398 0.0478,-0.3973 0.1088,-0.7662 0.1994,-1.1564 0.0604,-0.26 0.2871,-0.8638 0.2084,-1.0614 -0.2006,0.367 -0.5111,1.5724 -0.6093,2.039 -0.1636,0.7768 -0.2891,1.4958 -0.3726,2.2837 -0.0772,0.7281 -0.1271,1.438 -0.1767,2.1664 -0.0506,0.7435 -0.1826,1.4642 -0.2287,2.1932z"/>
   <path class="fil9 str2" d="M24.5892 16.9414c1.379,0.8742 1.9199,4.5961 2.4635,5.227 0.1295,-0.7501 -0.6386,-3.6082 -1.2611,-4.3724 -0.2712,-0.3329 -0.4625,-0.5028 -0.8259,-0.7331 -0.173,-0.1097 -0.2435,-0.1842 -0.3765,-0.1214z"/>
   <path class="fil9 str2" d="M26.8271 10.0109c0.1608,-0.7093 0.317,-1.094 -0.0522,-1.6472 -0.2071,-0.3103 -0.147,-0.4173 -0.0949,-0.8269 0.1618,-1.2718 0.8192,-4.0052 0.5734,-4.8697 -0.0921,0.0777 -0.1266,0.7707 -0.1412,0.9018 -0.0988,0.8922 -0.6013,4.2774 -0.7635,4.9918 -0.2052,0.9036 0.1352,0.9178 0.4004,1.3366l0.078 0.1136z"/>
   <path class="fil9 str2" d="M26.7183 11.2551c0.2609,-1.7356 -0.6351,-1.2663 -0.5486,-2.3338 0.0977,-1.2056 0.5681,-3.2727 0.3383,-4.5363 -0.0208,-0.1142 0.008,-0.1124 -0.0713,-0.1456l-0.1173 1.8222c-0.0581,0.6511 -0.1208,1.2987 -0.1866,1.952 -0.0821,0.8156 -0.3777,2.1518 0.0743,2.6423 0.2819,0.306 0.217,0.1112 0.4731,0.5394 0.0053,0.0089 0.0142,0.0223 0.0187,0.0297 0.0046,0.0075 0.0122,0.0205 0.0194,0.0301z"/>
   <path class="fil9 str2" d="M26.6747 12.3962c0.1088,-0.7366 0.0412,-1.1254 -0.4302,-1.4593 -0.4994,-0.3537 -0.3675,-0.8155 -0.3313,-1.52 0.0389,-0.7572 0.088,-2.8874 -0.173,-3.3722 -0.034,0.1339 0.0593,1.3722 0.0584,1.6934 -0.0018,0.5942 -0.0244,1.1849 -0.0465,1.7837 -0.0329,0.8933 -0.2398,1.9496 0.3572,2.374 0.3565,0.2534 0.3195,0.1779 0.5654,0.5004z"/>
   <path class="fil9 str2" d="M26.9147 10.7062l0.0504 -0.0472c0.3735,-0.368 0.251,-0.2164 0.65,-0.5066 0.375,-0.2728 0.3952,-1.2794 0.508,-1.9162 0.1608,-0.9076 0.4268,-1.9472 0.818,-2.7801 0.1348,-0.287 0.2815,-0.5117 0.4053,-0.7785 -0.3124,0.1068 -0.7114,1.0206 -0.8152,1.2817 -0.3322,0.836 -0.4721,1.793 -0.6221,2.6855 -0.0664,0.395 -0.1875,0.49 -0.42,0.6376 -0.4448,0.2825 -0.5404,0.7544 -0.5744,1.4238z"/>
   <path class="fil9 str2" d="M26.9366 8.3704c0.7113,-0.6592 0.6565,-0.4406 0.4771,-1.3454 -0.0971,-0.4895 0.6348,-3.2356 0.8193,-3.8626 0.069,-0.2347 0.5633,-1.6015 0.529,-1.7042 -0.0873,0.0859 -0.1386,0.2179 -0.1888,0.3337l-0.4697 1.2441c-0.2012,0.6106 -0.3509,1.2148 -0.4959,1.8405 -0.1256,0.542 -0.2333,1.5212 -0.4092,1.9759 -0.1253,0.324 -0.5008,0.5489 -0.4051,1.1522l0.1434 0.3657z"/>
   <path class="fil9 str2" d="M27.1278 9.399c0.4746,-0.3394 0.6708,-0.4699 0.751,-1.2867 0.133,-1.3548 0.612,-3.1424 1.2592,-4.3383 0.1038,-0.1919 0.3366,-0.544 0.3907,-0.7116 -0.2985,0.1525 -0.6927,0.8907 -0.875,1.3009 -0.2461,0.5536 -0.4276,1.1766 -0.5669,1.8024 -0.0729,0.3277 -0.1503,0.6424 -0.2093,0.9747 -0.0634,0.3568 -0.0753,0.7172 -0.2977,0.8953 -0.1501,0.1202 -0.4908,0.3024 -0.5378,0.5051 -0.047,0.2026 0.15,0.1806 0.0859,0.8581z"/>
   <path class="fil9 str2" d="M26.6525 13.6018c-0.0242,-0.652 0.1142,-0.9054 -0.2603,-1.3233 -0.355,-0.3962 -0.6579,-0.1258 -0.7404,-0.9919 -0.0461,-0.4844 -0.0401,-2.617 -0.2107,-2.8593 -0.0571,0.1307 -0.0461,3.5063 0.3217,4.2926 0.0854,0.1826 0.2076,0.3252 0.4386,0.4527 0.3365,0.1857 0.2711,0.253 0.451,0.4292z"/>
   <path class="fil9 str2" d="M26.8219 11.8493c0.6632,-0.6386 0.5732,-0.2122 0.9456,-0.6995 0.387,-0.5064 0.3688,-3.0209 1.2052,-4.5029 -0.0938,0.0121 -0.055,0.0011 -0.1223,0.0628 -0.5159,0.4732 -0.939,3.3838 -1.0127,3.5175 -0.1251,0.2266 -0.3354,0.1937 -0.538,0.3105 -0.4622,0.2666 -0.4389,0.7572 -0.4778,1.3116z"/>
   <path class="fil9 str2" d="M26.7834 13.042c0.5451,-0.718 0.8973,-0.1453 1.295,-1.6539 0.2372,-0.8999 0.3318,-1.7577 0.6395,-2.6351 -0.1051,0.0033 -0.0077,-0.0431 -0.0934,0.0421 -0.1332,0.1323 -0.3179,0.9588 -0.3542,1.1285 -0.0657,0.3067 -0.2224,1.0637 -0.3418,1.3107 -0.3264,0.6752 -1.189,-0.0705 -1.1451,1.8078z"/>
   <path class="fil9 str2" d="M26.7944 14.2312c0.4682,-0.5143 -0.0255,-0.1019 0.581,-0.4888 0.4599,-0.2933 0.4615,-0.8091 0.554,-1.3806 -0.1198,0.042 -0.0068,-0.0131 -0.0989,0.0632 -0.0931,0.0772 -0.1078,0.158 -0.3255,0.268 -0.2164,0.1093 -0.2798,0.1021 -0.4625,0.2787 -0.2479,0.2397 -0.3646,0.9479 -0.2482,1.2594z"/>
   <path class="fil9 str2" d="M26.6511 14.7735c0.1108,-0.9137 -0.1285,-1.221 -0.6696,-1.519 -0.3456,-0.1903 -0.2255,-0.2786 -0.3912,-0.3986 0.0839,1.8531 0.4783,1.1833 1.0607,1.9176z"/>
   <path class="fil9 str2" d="M26.7719 14.9773c0.0621,-0.0353 0.0221,-0.0109 0.0811,-0.0575 0.0361,-0.0285 0.0306,-0.0274 0.0692,-0.0586 0.5041,-0.4063 0.7409,-0.0919 0.8095,-1.1477l-0.6568 0.3858c-0.2681,0.2335 -0.2716,0.4862 -0.303,0.8779z"/>
  </g>
  <path class="fil9 str2" d="M25.4052 33.4866l-0.0789 0.0146c-0.4626,-0.3411 -0.3448,-0.3812 -0.3401,-1.0072 0.0033,-0.4368 -0.1411,-1.5354 -0.2957,-1.9746 -0.0628,-0.1783 -0.1663,-0.299 -0.25,-0.4758 -0.1565,-0.3308 -0.3013,-0.7142 -0.4377,-1.0553 -0.5967,-1.4925 -1.1985,-2.7592 -2.0455,-3.9415 -0.8447,-1.179 -1.6319,-2.2507 -2.5839,-3.1551 -0.5856,-0.5563 -2.5042,-2.2195 -3.3283,-2.0661 0.0405,-0.0373 -0.0002,-0.0179 0.0737,-0.044 0.0933,-0.0329 -0.0016,-0.0047 0.0594,-0.0145 0.2209,-0.0357 0.7275,0.077 0.931,0.1413 0.3282,0.1036 0.6628,0.255 0.922,0.4046 2.0808,1.2009 4.2277,3.9638 5.4108,6.0644 0.3588,0.637 0.6842,1.3837 0.9785,2.0595 0.4895,1.1236 0.7249,2.4672 0.8238,3.7437 0.0171,0.2204 0.0251,0.4318 0.0434,0.644 0.0211,0.2457 0.0928,0.4333 0.1174,0.662z"/>
  <path class="fil9 str2" d="M20.2056 17.5513c-0.1543,-0.2506 -0.4144,-0.4398 -0.5294,-0.7285 -0.2215,-0.5563 -0.0558,-0.8271 -0.0779,-1.0378 -0.0339,-0.3227 -0.7899,-1.3211 -0.9826,-1.5989 -0.7441,-1.0727 -1.4387,-1.8671 -1.9685,-3.2381 0.1268,0.0144 0.0259,-0.0663 0.1471,0.1233l3.0399 4.6334c0.3086,0.4561 0.6908,0.7152 0.4895,1.3615l-0.1182 0.4851z"/>
  <path class="fil9 str2" d="M20.8374 18.6555c-0.0519,-0.1595 -0.3243,-0.4935 -0.4036,-0.7948 -0.1176,-0.4466 0.0222,-0.5837 0.0847,-0.9294 0.0922,-0.5098 -0.5104,-1.2433 -0.7495,-1.6353 -0.6816,-1.1172 -1.2462,-1.8475 -1.698,-3.2647 0.1205,0.0049 0.067,-0.0117 0.2311,0.3289 0.4257,0.8835 1.5478,2.7569 2.0817,3.6392 0.2722,0.4498 0.8255,1.329 0.6988,1.7961 -0.0389,0.1435 -0.1125,0.2424 -0.1707,0.3955 -0.06,0.158 -0.0652,0.2678 -0.0746,0.4646z"/>
  <path class="fil9 str2" d="M21.3224 19.6388c-0.1001,-0.1156 -0.3097,-0.552 -0.348,-0.7397 -0.0698,-0.3418 0.0485,-0.6008 0.1722,-0.785 0.3254,-0.4844 -0.0686,-1.0109 -0.3272,-1.5102 -0.4482,-0.8654 -1.1166,-2.1959 -1.3009,-3.2377 0.049,0.0356 0.023,0.0022 0.064,0.0638l0.6369 1.5655c0.4108,0.9156 1.2083,2.3462 1.4877,3.107 0.1139,0.3103 0.0745,0.623 -0.0456,0.8433 -0.171,0.3138 -0.221,0.2087 -0.3391,0.693z"/>
  <path class="fil9 str2" d="M14.7 10.6526l0.0739 -0.0137c0.5682,0.5014 0.6552,0.5106 1.2876,1.1479 1.1205,1.1292 1.4477,1.7387 2.2938,2.8374 0.2785,0.3616 0.3305,0.2778 0.6866,0.5366 0.3368,0.2449 0.3698,0.4652 0.4085,0.9435 -0.1288,-0.02 -0.2384,-0.0992 -0.4182,-0.1293 -0.2265,-0.038 -0.2738,-0.0083 -0.4029,-0.2138 -0.2304,-0.3669 -0.1151,-0.6371 -0.3736,-1.0001 -1.0181,-1.4297 -1.9792,-2.5691 -3.2264,-3.7661 -0.1118,-0.1072 -0.2423,-0.193 -0.3294,-0.3425z"/>
  <path class="fil9 str2" d="M20.429 18.243c-0.5986,-0.2598 -0.1863,-0.1248 -0.8112,-0.2354 -0.3095,-0.0548 -0.4788,-0.2517 -0.6259,-0.4881 -0.7855,-1.2623 -1.871,-2.7026 -3.1106,-3.5339 -0.1072,-0.0719 -0.111,-0.0393 -0.151,-0.1421 0.9772,0.204 2.3191,1.9608 2.8623,2.8196 0.1738,0.2748 0.3157,0.4345 0.6186,0.488 0.7847,0.1385 0.8084,0.3716 1.2178,1.092z"/>
  <path class="fil9 str2" d="M21.8209 20.7333c-0.1701,-0.4191 -0.5144,-0.879 -0.269,-1.3485 0.2516,-0.4814 0.5502,-0.4454 0.2763,-1.2126 -0.1345,-0.3769 -1.0504,-2.5064 -0.9869,-2.712 0.0622,0.0432 1.5346,3.2167 1.4788,4.1452 -0.0248,0.4118 -0.2784,0.5352 -0.4076,0.8128 -0.0626,0.1345 -0.0412,0.1973 -0.0915,0.3151z"/>
  <path class="fil9 str2" d="M20.9387 19.1946c-0.6674,-0.1939 -0.0365,-0.0665 -0.7414,-0.138 -0.6654,-0.0675 -0.9738,-0.8049 -1.4354,-1.4999 -0.4508,-0.6786 -1.081,-1.4582 -1.7022,-1.9985 -0.0007,-0.0006 -0.0679,-0.0617 -0.0696,-0.0634 -0.0712,-0.073 0.0313,0.0628 -0.073,-0.0842 0.5467,0.0919 1.6773,1.581 1.9413,2.0092 0.1024,0.1661 0.2892,0.4731 0.4013,0.6092 0.4061,0.4932 1.1263,-0.3429 1.679,1.1656z"/>
  <path class="fil9 str2" d="M19.4209 16.3074c0.0755,0.351 0.0541,0.5133 0.2506,0.7967 -0.7806,-0.0231 -1.0138,-0.4972 -1.2952,-0.9768 -0.2769,-0.4721 -0.7082,-1.011 -1.0475,-1.4117 -0.8607,-1.0165 -1.307,-1.3818 -2.3204,-2.04l-0.1972 -0.162c0.7661,0.0854 1.917,1.2814 2.3838,1.8051 0.351,0.3938 0.6205,0.7825 0.9525,1.197 0.0817,0.1019 0.1505,0.2073 0.2294,0.3162 0.3966,0.5481 0.3745,0.0666 1.0439,0.4754z"/>
  <path class="fil9 str2" d="M21.4541 20.2568c-0.234,-0.085 -0.173,-0.1515 -0.5914,-0.1789 -0.2336,-0.0153 -0.4221,-0.0726 -0.5793,-0.1555 -0.2033,-0.1072 -0.62,-0.5939 -0.815,-0.8528 -0.3307,-0.4389 -0.7351,-1.0881 -1.0758,-1.4719 -0.1115,-0.1256 -0.3219,-0.3356 -0.4031,-0.4582 0.2412,0.0035 0.6878,0.622 0.8183,0.8016 1.4515,1.9987 1.069,0.9706 1.8958,1.319 0.3793,0.1599 0.5732,0.4863 0.7504,0.9966z"/>
  <path class="fil9 str2" d="M22.298 21.7817l-0.1349 -0.2689c-0.4869,-1.2112 0.1707,-0.9826 0.3342,-1.7485l0.0528 -0.1456c0.1929,0.6926 0.5249,1.1184 0.0091,1.6924 -0.1246,0.1386 -0.2048,0.2931 -0.2612,0.4705z"/>
  <path class="fil9 str2" d="M21.9703 21.3846c-0.8895,-0.5921 -1.06,0.1571 -1.8292,-1.3259 0.2332,0.0613 0.279,0.1501 0.5869,0.1596 0.2456,0.0076 0.4263,0.0482 0.5901,0.1394 0.3231,0.1798 0.4703,0.59 0.6523,1.0269z"/>
  <path class="fil9 str2" d="M22.2498 22.0247c-0.4684,-0.1577 -0.6251,-0.0804 -0.8632,-0.1732 -0.2291,-0.0893 -0.4797,-0.3461 -0.5272,-0.6474 0.8572,0.1831 0.9706,-0.0384 1.3903,0.8206z"/>
 </g>
</svg>
